Coordinates
nRows=299
nColumns=2
inDegrees=yes
endheader
time	ankle_angle_r	
2.0291	  0.061011	
2.06237	  0.035434	
2.09563	  0.031114	
2.1289	  0.036508	
2.16216	  0.034397	
2.19542	  0.026873	
2.22869	  0.023303	
2.26195	  0.029622	
2.29522	  0.043188	
2.32848	  0.052418	
2.36174	  0.050287	
2.39501	  0.038913	
2.42827	  0.025168	
2.46154	  0.022700	
2.4948	  0.041642	
2.52806	  0.072247	
2.56133	  0.095950	
2.59459	  0.103131	
2.62786	  0.093403	
2.66112	  0.073588	
2.69438	  0.051039	
2.72765	  0.031997	
2.76091	  0.028261	
2.79418	  0.041598	
2.82744	  0.051517	
2.8607	  0.042372	
2.89397	  0.022894	
2.92723	  0.006371	
2.9605	 -0.003910	
2.99376	 -0.006117	
3.02702	  0.002905	
3.06029	  0.019486	
3.09355	  0.030786	
3.12682	  0.027529	
3.16008	  0.013181	
3.19334	 -0.005820	
3.22661	 -0.022092	
3.25987	 -0.022648	
3.29314	 -0.003773	
3.3264	  0.020794	
3.35966	  0.032694	
3.39293	  0.022473	
3.42619	  0.000999	
3.45946	 -0.011198	
3.49272	 -0.010233	
3.52598	 -0.004673	
3.55925	 -0.001068	
3.59251	 -0.003033	
3.62578	 -0.006491	
3.65904	 -0.007421	
3.6923	 -0.011749	
3.72557	 -0.018439	
3.75883	 -0.014922	
3.7921	  0.000663	
3.82536	  0.015407	
3.85862	  0.016013	
3.89189	 -0.001268	
3.92515	 -0.025558	
3.95842	 -0.039867	
3.99168	 -0.037023	
4.02494	 -0.019296	
4.05821	  0.006491	
4.09147	  0.027425	
4.12474	  0.034772	
4.158	  0.032563	
4.19126	  0.028717	
4.22453	  0.027666	
4.25779	  0.025332	
4.29106	  0.012545	
4.32432	 -0.004733	
4.35758	 -0.011078	
4.39085	 -0.007500	
4.42411	 -0.002005	
4.45738	  0.003289	
4.49064	  0.002003	
4.5239	 -0.009190	
4.55717	 -0.024316	
4.59043	 -0.042440	
4.6237	 -0.060997	
4.65696	 -0.065630	
4.69022	 -0.050127	
4.72349	 -0.024666	
4.75675	 -0.001955	
4.79002	  0.008818	
4.82328	  0.009617	
4.85654	  0.014588	
4.88981	  0.028307	
4.92307	  0.041797	
4.95634	  0.049801	
4.9896	  0.048660	
5.02286	  0.035595	
5.05613	  0.014276	
5.08939	 -0.013147	
5.12266	 -0.038067	
5.15592	 -0.045053	
5.18918	 -0.040776	
5.22245	 -0.040551	
5.25571	 -0.035460	
5.28898	 -0.019683	
5.32224	 -0.009403	
5.3555	 -0.010853	
5.38877	 -0.014994	
5.42203	 -0.016155	
5.4553	 -0.013001	
5.48856	 -0.009267	
5.52182	 -0.009714	
5.55509	 -0.010084	
5.58835	 -0.007426	
5.62162	 -0.004912	
5.65488	  0.001705	
5.68814	  0.015145	
5.72141	  0.025365	
5.75467	  0.025079	
5.78794	  0.016021	
5.8212	  0.003438	
5.85446	 -0.004295	
5.88773	 -0.005135	
5.92099	 -0.006361	
5.95426	 -0.009779	
5.98752	 -0.011367	
6.02078	 -0.012759	
6.05405	 -0.018919	
6.08731	 -0.030420	
6.12058	 -0.037707	
6.15384	 -0.028648	
6.1871	 -0.009469	
6.22037	  0.002516	
6.25363	  0.001745	
6.2869	 -0.009639	
6.32016	 -0.026847	
6.35342	 -0.040266	
6.38669	 -0.047662	
6.41995	 -0.052805	
6.45322	 -0.050622	
6.48648	 -0.038284	
6.51974	 -0.024013	
6.55301	 -0.012782	
6.58627	 -0.005331	
6.61954	 -0.001815	
6.6528	  0.001662	
6.68606	  0.004298	
6.71933	 -0.001269	
6.75259	 -0.015090	
6.78586	 -0.028580	
6.81912	 -0.035216	
6.85238	 -0.034007	
6.88565	 -0.027296	
6.91891	 -0.017772	
6.95218	 -0.007897	
6.98544	 -0.004024	
7.0187	 -0.010328	
7.05197	 -0.020980	
7.08523	 -0.031512	
7.1185	 -0.043654	
7.15176	 -0.056260	
7.18502	 -0.068154	
7.21829	 -0.078744	
7.25155	 -0.080141	
7.28482	 -0.061786	
7.31808	 -0.022768	
7.35134	  0.016393	
7.38461	  0.024188	
7.41787	  0.000016	
7.45114	 -0.022549	
7.4844	 -0.024974	
7.51766	 -0.017592	
7.55093	 -0.016767	
7.58419	 -0.029886	
7.61746	 -0.040088	
7.65072	 -0.024700	
7.68398	  0.004803	
7.71725	  0.023970	
7.75051	  0.030302	
7.78378	  0.029832	
7.81704	  0.028279	
7.8503	  0.031798	
7.88357	  0.036912	
7.91683	  0.036820	
7.9501	  0.030862	
7.98336	  0.022143	
8.01662	  0.018477	
8.04989	  0.023303	
8.08315	  0.029643	
8.11642	  0.036272	
8.14968	  0.049237	
8.18294	  0.066413	
8.21621	  0.078296	
8.24947	  0.075590	
8.28274	  0.052888	
8.316	  0.020379	
8.34926	  0.001507	
8.38253	  0.006713	
8.41579	  0.029345	
8.44906	  0.057906	
8.48232	  0.076503	
8.51558	  0.076121	
8.54885	  0.061066	
8.58211	  0.040029	
8.61538	  0.023389	
8.64864	  0.013466	
8.6819	  0.006409	
8.71517	  0.008096	
8.74843	  0.020890	
8.7817	  0.034471	
8.81496	  0.045663	
8.84822	  0.060611	
8.88149	  0.081109	
8.91475	  0.102137	
8.94802	  0.113600	
8.98128	  0.111378	
9.01454	  0.105171	
9.04781	  0.099035	
9.08107	  0.087388	
9.11434	  0.076921	
9.1476	  0.076994	
9.18086	  0.079903	
9.21413	  0.076080	
9.24739	  0.067775	
9.28066	  0.059640	
9.31392	  0.053039	
9.34718	  0.048813	
9.38045	  0.048016	
9.41371	  0.047154	
9.44698	  0.037672	
9.48024	  0.023339	
9.5135	  0.020194	
9.54677	  0.025447	
9.58003	  0.023222	
9.6133	  0.017840	
9.64656	  0.020190	
9.67982	  0.027797	
9.71309	  0.041346	
9.74635	  0.062647	
9.77962	  0.082193	
9.81288	  0.095401	
9.84614	  0.104005	
9.87941	  0.101158	
9.91267	  0.084510	
9.94594	  0.064168	
9.9792	  0.047676	
10.0125	  0.037540	
10.0457	  0.032718	
10.079	  0.030414	
10.1123	  0.032976	
10.1455	  0.037503	
10.1788	  0.034060	
10.212	  0.024694	
10.2453	  0.018157	
10.2786	  0.018043	
10.3118	  0.028855	
10.3451	  0.044951	
10.3784	  0.051492	
10.4116	  0.056336	
10.4449	  0.074811	
10.4782	  0.094446	
10.5114	  0.101161	
10.5447	  0.100316	
10.578	  0.094048	
10.6112	  0.082441	
10.6445	  0.075012	
10.6777	  0.074205	
10.711	  0.071587	
10.7443	  0.063519	
10.7775	  0.053673	
10.8108	  0.047749	
10.8441	  0.046353	
10.8773	  0.044841	
10.9106	  0.046894	
10.9439	  0.057890	
10.9771	  0.068163	
11.0104	  0.070603	
11.0436	  0.072801	
11.0769	  0.076388	
11.1102	  0.075266	
11.1434	  0.070004	
11.1767	  0.064603	
11.21	  0.061032	
11.2432	  0.058663	
11.2765	  0.055914	
11.3098	  0.055301	
11.343	  0.059722	
11.3763	  0.068068	
11.4096	  0.078191	
11.4428	  0.081373	
11.4761	  0.066836	
11.5093	  0.046637	
11.5426	  0.044864	
11.5759	  0.058806	
11.6091	  0.068536	
11.6424	  0.068693	
11.6757	  0.066357	
11.7089	  0.069033	
11.7422	  0.074751	
11.7755	  0.069363	
11.8087	  0.047024	
11.842	  0.021961	
11.8752	  0.011638	
11.9085	  0.021680	
11.9418	  0.045693	
